<svg viewBox="0 0 768 183" fill="none" xmlns="http://www.w3.org/2000/svg" style="aspect-ratio:768/183; width:100%; height:auto;">
<path d="M222.931 46.2391C237.775 45.7741 254.421 46.1131 269.408 46.0821C275.844 76.5341 286.44 110.093 291.673 140.309L319.019 46.1611L366.131 46.1321C375.665 76.4921 384.621 108.877 393.459 139.501C401.072 108.728 409.712 76.8881 416.784 46.1701L461.982 46.1471L452.375 77.6771L422.243 179.756C404.699 179.57 386.648 179.78 369.07 179.798C362.057 155.001 354.073 130.487 347.289 105.622C345.566 99.3081 343.793 93.0031 341.755 86.7821C333.991 117.168 322.869 150.294 315.873 179.786L262.268 179.687C250.287 135.934 235.859 90.0311 222.931 46.2391Z" fill="currentColor"/>
<path fill-rule="evenodd" clip-rule="evenodd" d="M129.551 43.1053C151.152 40.1213 180.548 45.6967 197.225 59.6746C210.579 70.6596 217.873 86.4576 219.45 103.594C223.619 148.875 197.353 177.769 152.868 181.722C129.774 184.001 103.837 180.548 84.8956 165.83C56.7466 143.955 53.9747 95.5527 75.7647 68.3777C89.0387 51.8247 108.872 45.2273 129.551 43.1053ZM174.109 108.696C172.753 86.9241 159.205 77.0036 137.926 77.9676C128.802 78.8336 120.574 80.9889 114.615 88.4617C103.793 102.037 103.972 129.373 118.255 140.632C125.532 146.367 134.411 147.591 143.31 147.231C166.449 145.657 175.521 131.372 174.109 108.696Z" fill="currentColor"/>
<path fill-rule="evenodd" clip-rule="evenodd" d="M685.789 43.1082C710.61 39.6842 745.941 46.5395 758.854 69.9255C768.972 88.2515 766.886 112.056 766.845 132.438L766.881 179.839C752.515 179.648 737.905 179.758 723.52 179.736L723.51 147.602C712.801 172.46 697.687 181.579 670.037 182.39C654.536 182.844 641.269 179.849 629.772 168.867C625.474 163.568 622.973 157.99 622.296 151.181C618.479 112.807 662.281 111.015 689.015 108.553L721.383 105.588C721.447 92.3777 721 81.5622 705.077 78.8972C695.697 77.3283 682.934 77.5453 674.675 82.9929C669.099 86.6719 668.169 93.7125 667.21 99.8015C653.065 99.9455 638.918 99.9548 624.773 99.8298C627.305 62.458 650.044 46.6152 685.789 43.1082ZM711.017 147.057C716.573 144.138 727.13 127.453 717.046 129.16C705.629 130.355 694.203 131.544 682.796 132.802C676.724 133.473 664.059 135.137 664.312 143.438C664.449 147.913 667.382 150.173 670.931 152.233C684.611 155.444 698.492 153.636 711.017 147.057Z" fill="currentColor"/>
<path fill-rule="evenodd" clip-rule="evenodd" d="M525.849 43.0987C545.259 40.7247 571.422 44.01 586.997 56.211C609.629 73.939 606.487 105.047 606.467 130.677L606.402 179.798L563.184 179.725C563.197 169.058 562.957 158.471 563.168 147.787C552.645 171.49 538.585 181.135 511.794 182.335C495.882 183.047 481.493 180.204 469.548 168.993C465.027 163.673 462.3 157.062 461.756 150.101C458.56 113.053 502.729 110.832 528.818 108.459L561.134 105.5C561.22 90.93 560.316 80.5191 542.69 78.4571C533.811 77.418 521.72 77.661 514.21 83.336C508.63 87.5529 507.75 93.238 506.922 99.8018L464.387 99.9199C467.155 62.1749 489.817 46.6507 525.849 43.0987ZM559.839 129.121C558.378 128.79 558.402 128.881 556.903 129.163C542.411 130.694 527.572 131.794 513.289 134.49C504.892 136.075 500.187 144.841 507.938 150.506C508.764 151.107 509.623 151.663 510.51 152.171C527.129 156.186 555.952 153.219 560.267 133.506C560.682 131.609 560.705 130.738 559.839 129.121Z" fill="currentColor"/>
<path d="M0.357338 46.1591C15.1578 45.8971 30.6528 46.1301 45.5098 46.1261L45.4278 179.807L0.335938 179.711L0.357338 46.1591Z" fill="currentColor"/>
<path d="M0.0878983 0L45.5414 0.00100708L45.3704 30.433L0 30.386L0.0878983 0Z" fill="currentColor"/>
</svg>
